<svg xmlns="http://www.w3.org/2000/svg" width="38" height="36" viewBox="0 0 38 36">
  <path id="thumb_icon" d="M8.75,23A3.655,3.655,0,0,1,6.1,21.925a3.8,3.8,0,0,1,0-5.35A3.715,3.715,0,0,1,8.8,15.5a3.655,3.655,0,0,1,2.65,1.075,3.8,3.8,0,0,1,0,5.35A3.715,3.715,0,0,1,8.75,23Zm9.15-8.2a3.589,3.589,0,0,1-2.675-1.1A3.715,3.715,0,0,1,14.15,11a3.655,3.655,0,0,1,1.075-2.65,3.772,3.772,0,0,1,5.325,0,3.671,3.671,0,0,1,1.1,2.7A3.756,3.756,0,0,1,17.9,14.8Zm12.2,0a3.612,3.612,0,0,1-2.65-1.1,3.671,3.671,0,0,1-1.1-2.7,3.612,3.612,0,0,1,1.1-2.65,3.671,3.671,0,0,1,2.7-1.1,3.612,3.612,0,0,1,2.65,1.1,3.671,3.671,0,0,1,1.1,2.7,3.612,3.612,0,0,1-1.1,2.65,3.671,3.671,0,0,1-2.7,1.1ZM39.2,23a3.655,3.655,0,0,1-2.65-1.075,3.8,3.8,0,0,1,0-5.35,3.715,3.715,0,0,1,2.7-1.075,3.655,3.655,0,0,1,2.65,1.075,3.8,3.8,0,0,1,0,5.35A3.715,3.715,0,0,1,39.2,23ZM13.3,43.25a3.628,3.628,0,0,1-2.925-1.35A4.84,4.84,0,0,1,9.25,38.7a5.367,5.367,0,0,1,1.5-3.8q1.5-1.6,2.95-3.2a24.959,24.959,0,0,0,2.325-2.9q1.025-1.5,2.125-3a18.854,18.854,0,0,1,2.575-2.825A4.768,4.768,0,0,1,24,21.7a5.014,5.014,0,0,1,3.375,1.275A15.073,15.073,0,0,1,29.95,25.85a35.954,35.954,0,0,1,2.125,2.975A20.4,20.4,0,0,0,34.3,31.7q1.45,1.6,2.95,3.2a5.367,5.367,0,0,1,1.5,3.8,4.84,4.84,0,0,1-1.125,3.2A3.628,3.628,0,0,1,34.7,43.25a31.9,31.9,0,0,1-5.35-.45,32.028,32.028,0,0,0-10.7,0,31.9,31.9,0,0,1-5.35.45Z" transform="translate(-5 -7.25)" fill="#3e0102"/>
</svg>
